<svg id="Capa_1" data-name="Capa 1" xmlns="http://www.w3.org/2000/svg" viewBox="0 0 101.89 50.48"><defs><style>.cls-1{fill:#969696;}.cls-2,.cls-4{fill:#1d1d1b;}.cls-2{stroke:#1d1d1b;stroke-width:0.5px;}.cls-2,.cls-3{stroke-miterlimit:10;}.cls-3{fill:#fff;stroke:#fff;stroke-width:0.25px;}.cls-4{font-size:12px;font-family:Stencil;letter-spacing:0.1em;}.cls-5{fill:#e30613;}</style></defs><title>logo-2</title><path class="cls-1" d="M240.32,352.47c.29-4.68,8-8.88,13.87-9.36,10.12-.84,17,9.16,17.36,9.7l38.9.08a18.42,18.42,0,0,1,17.87-9.44c8.88,1,13.27,8.58,13.7,9.36l-10.38,0c-.08-1.15-.35-2-.64-2s-.65.79-.85,2l-7.11,0a8.57,8.57,0,0,0-4.25,4.09,6.62,6.62,0,0,0-.51,1.61l0,7.15c.33,1.1,1.27,3.67,3.66,4.77a6.28,6.28,0,0,0,.81.3h6.89c.25,1.09.75,1.79,1.06,1.74s.58-.81.56-1.83l10.25.09c-.36.77-4,8.29-12.25,9.78-7.06,1.28-14.5-2.43-18.26-9.32l-39.25-.25a18.76,18.76,0,0,1-18.39,9.51c-8.44-1.11-12.74-8.15-13.27-9.06l10.21-.07c.24.94.59,1.56.83,1.53s.4-.66.43-1.49l7.53,0a11.71,11.71,0,0,0,4.47-4.38,11.91,11.91,0,0,0,.55-1.15l0-7.19c-.41-1.14-1.67-4.08-4.55-5.24a7.85,7.85,0,0,0-1.15-.34h-6.21c-.14-1.07-.43-1.83-.68-1.83s-.53.77-.64,1.83l-10.64.13A5,5,0,0,1,240.32,352.47Z" transform="translate(-240.13 -343.06)"/><path class="cls-2" d="M249.29,354.76l.08,14.73,7.1,0a10.24,10.24,0,0,0,2.63-3.84,10.43,10.43,0,0,0-.07-7.44,10.25,10.25,0,0,0-2.42-3.57Z" transform="translate(-240.13 -343.06)"/><path class="cls-2" d="M333.53,368.92l-.09-14.72-7.1-.05a10.17,10.17,0,0,0-.13,14.86Z" transform="translate(-240.13 -343.06)"/><rect class="cls-3" x="29.13" y="16.01" width="7.23" height="4.64"/><rect class="cls-3" x="41.34" y="16.05" width="7.23" height="4.64"/><rect class="cls-3" x="53.17" y="16.01" width="7.23" height="4.64"/><rect class="cls-3" x="64.62" y="15.96" width="7.23" height="4.64"/><path class="cls-2" d="M320.5,354.18l-.61.69-.6.71a1.35,1.35,0,0,1,.29-.87A1.46,1.46,0,0,1,320.5,354.18Z" transform="translate(-240.13 -343.06)"/><path class="cls-2" d="M321.28,355.68" transform="translate(-240.13 -343.06)"/><path class="cls-2" d="M318.94,367.63l.54.75.56.73a1.37,1.37,0,0,1-1.1-1.48Z" transform="translate(-240.13 -343.06)"/><path class="cls-2" d="M262.41,368.82c.19-.24.37-.48.56-.74l.55-.75a1.49,1.49,0,0,1-.23.9A1.4,1.4,0,0,1,262.41,368.82Z" transform="translate(-240.13 -343.06)"/><path class="cls-2" d="M263.15,355.89l-.6-.71-.62-.69a1.5,1.5,0,0,1,.82.41A1.45,1.45,0,0,1,263.15,355.89Z" transform="translate(-240.13 -343.06)"/><text class="cls-4" transform="translate(15.89 47.16)">Auto <tspan class="cls-5" x="39.29" y="0">Care</tspan></text></svg>